HIERARCHY
ROOT Hips
{
	OFFSET 0.000000 0.000000 0.000000
	CHANNELS 6 Xposition Yposition Zposition Xrotation Yrotation Zrotation
	JOINT LeftUpLeg_virtual
	{
		OFFSET 0.000000 0.000000 0.000000
		CHANNELS 3 Xrotation Yrotation Zrotation
		JOINT LeftUpLeg
		{
			OFFSET 10.205400 -3.823500 0.155100
			CHANNELS 3 Xrotation Yrotation Zrotation
			JOINT LeftLeg
			{
				OFFSET 0.708757 -12.982077 0.567790
				CHANNELS 3 Xrotation Yrotation Zrotation
				JOINT LeftFoot
				{
					OFFSET -0.708756 -10.717838 -2.184338
					CHANNELS 3 Xrotation Yrotation Zrotation
					JOINT LeftToeBase
					{
						OFFSET 0.108149 -7.191104 7.560241
						CHANNELS 3 Xrotation Yrotation Zrotation
						JOINT LeftToe_End
						{
							OFFSET 0.070230 0.081724 4.490308
							CHANNELS 3 Xrotation Yrotation Zrotation
							End Site
							{
								OFFSET 0 0 0
							}
						}
					}
				}
			}
		}
	}
	JOINT RightUpLeg_virtual
	{
		OFFSET 0.000000 0.000000 0.000000
		CHANNELS 3 Xrotation Yrotation Zrotation
		JOINT RightUpLeg
		{
			OFFSET -10.205400 -3.823500 0.005500
			CHANNELS 3 Xrotation Yrotation Zrotation
			JOINT RightLeg
			{
				OFFSET -0.708756 -12.982134 0.610632
				CHANNELS 3 Xrotation Yrotation Zrotation
				JOINT RightFoot
				{
					OFFSET 0.708754 -10.717769 -1.945823
					CHANNELS 3 Xrotation Yrotation Zrotation
					JOINT RightToeBase
					{
						OFFSET -0.108140 -7.191069 7.372968
						CHANNELS 3 Xrotation Yrotation Zrotation
						JOINT RightToe_End
						{
							OFFSET -0.070227 0.081735 4.479403
							CHANNELS 3 Xrotation Yrotation Zrotation
							End Site
							{
								OFFSET 0 0 0
							}
						}
					}
				}
			}
		}
	}
	JOINT Spine_virtual
	{
		OFFSET 0.000000 0.000000 0.000000
		CHANNELS 3 Xrotation Yrotation Zrotation
		JOINT Spine
		{
			OFFSET 0.000000 6.876099 0.125700
			CHANNELS 3 Xrotation Yrotation Zrotation
			JOINT Spine1
			{
				OFFSET 0.000000 5.730043 0.104720
				CHANNELS 3 Xrotation Yrotation Zrotation
				JOINT Spine1_split
				{
					OFFSET 0.000000 5.730043 0.104720
					CHANNELS 3 Xrotation Yrotation Zrotation
					JOINT Spine2
					{
						OFFSET 0.000000 5.730043 0.104720
						CHANNELS 3 Xrotation Yrotation Zrotation
						JOINT Neck_virtual
						{
							OFFSET 0.000000 0.000000 0.000000
							CHANNELS 3 Xrotation Yrotation Zrotation
							JOINT Neck
							{
								OFFSET 0.000000 10.314075 0.188496
								CHANNELS 3 Xrotation Yrotation Zrotation
								JOINT Head
								{
									OFFSET 0.000000 7.643700 -2.377400
									CHANNELS 3 Xrotation Yrotation Zrotation
									JOINT HeadTop_End
									{
										OFFSET 0.000000 43.788605 -13.619600
										CHANNELS 3 Xrotation Yrotation Zrotation
										End Site
										{
											OFFSET 0 0 0
										}
									}
								}
							}
						}
						JOINT LeftShoulder_virtual
						{
							OFFSET 0.000000 0.000000 0.000000
							CHANNELS 3 Xrotation Yrotation Zrotation
							JOINT LeftShoulder
							{
								OFFSET 2.196100 4.412489 0.087492
								CHANNELS 3 Xrotation Yrotation Zrotation
								JOINT LeftShoulder_split
								{
									OFFSET 2.196100 4.412489 0.087492
									CHANNELS 3 Xrotation Yrotation Zrotation
									JOINT LeftArm
									{
										OFFSET 8.771219 -2.981674 -0.026999
										CHANNELS 3 Xrotation Yrotation Zrotation
										JOINT LeftForeArm
										{
											OFFSET 8.512804 0.000000 -0.000000
											CHANNELS 3 Xrotation Yrotation Zrotation
											JOINT LeftHand
											{
												OFFSET 18.484802 0.000000 -0.000000
												CHANNELS 3 Xrotation Yrotation Zrotation
												End Site
												{
													OFFSET 0 0 0
												}
											}
										}
									}
								}
							}
						}
						JOINT RightShoulder_virtual
						{
							OFFSET 0.000000 0.000000 0.000000
							CHANNELS 3 Xrotation Yrotation Zrotation
							JOINT RightShoulder
							{
								OFFSET -2.196100 4.412496 0.070690
								CHANNELS 3 Xrotation Yrotation Zrotation
								JOINT RightShoulder_split
								{
									OFFSET -2.196100 4.412496 0.070690
									CHANNELS 3 Xrotation Yrotation Zrotation
									JOINT RightArm
									{
										OFFSET -8.771282 -2.981682 -0.094208
										CHANNELS 3 Xrotation Yrotation Zrotation
										JOINT RightForeArm
										{
											OFFSET -8.494598 0.000000 0.000000
											CHANNELS 3 Xrotation Yrotation Zrotation
											JOINT RightHand
											{
												OFFSET -18.483803 0.000000 0.000001
												CHANNELS 3 Xrotation Yrotation Zrotation
												End Site
												{
													OFFSET 0 0 0
												}
											}
										}
									}
								}
							}
						}
					}
				}
			}
		}
	}
}
MOTION
Frames: 9
Frame Time: 0.03333333
-101.378685 33.611542 -5.290964 0.000000 0.000000 0.000000 2.948532 0.857590 0.323201 -18.614463 16.747661 17.725939 23.139590 -7.836104 1.237077 -11.216438 -14.557039 -4.624017 -0.344841 -0.392375 1.757806 0.000000 0.000000 0.000000 1.853829 3.243990 -0.002276 -4.586778 -6.170734 -18.998062 20.273267 -0.828502 9.308465 -7.974996 -4.767957 6.216297 -8.437696 0.177425 -0.999689 0.000000 0.000000 0.000000 3.407408 1.766889 -0.145115 0.792737 1.039426 1.228697 2.470418 0.940197 0.385484 0.753165 -1.846892 0.154115 0.000000 0.000000 0.000000 1.869717 0.579984 0.487187 3.608277 -0.539898 -1.449257 -7.104786 -6.118672 1.492459 0.000000 0.000000 0.000000 0.654459 0.494115 0.166323 0.841598 -0.812640 -10.325803 -2.331204 -0.990821 0.296735 8.380025 -17.355384 -62.894964 -0.380730 -22.062093 0.389589 0.000000 0.000000 0.000000 1.397746 0.612775 0.884704 0.591892 5.444812 13.753496 1.805187 3.088662 -3.069095 12.517840 8.417392 63.594792 1.020581 31.109681 0.315360 0.000000 0.000000 0.000000 
-101.329941 33.585838 -5.266363 0.000000 0.000000 0.000000 2.742988 0.891806 0.209541 -18.799913 16.775815 17.846166 23.334587 -7.954357 1.484535 -10.835100 -14.722936 -4.401394 -0.482276 -0.401400 1.680633 0.000000 0.000000 0.000000 1.605429 3.128803 -0.114005 -4.685671 -6.106496 -18.866835 20.764489 -0.506995 9.203001 -8.231367 -4.612521 6.547635 -8.498236 0.209829 -1.213257 0.000000 0.000000 0.000000 3.216082 1.707948 -0.192440 0.761422 1.073340 1.382302 2.560329 1.002691 0.396667 0.787597 -1.687753 0.185924 0.000000 0.000000 0.000000 1.756625 0.599621 0.530258 3.432821 -0.578766 -1.601696 -7.606105 -6.448307 1.596262 0.000000 0.000000 0.000000 0.664759 0.545776 0.178155 0.890002 -0.056691 -9.901730 -2.295868 -1.155049 0.449147 8.252748 -17.573261 -62.412035 -0.701377 -25.099962 0.267851 0.000000 0.000000 0.000000 1.452175 0.670739 0.894296 0.626167 5.343835 13.495128 1.704818 3.061574 -2.920617 13.077709 9.806450 61.880189 0.888955 34.155300 0.376144 0.000000 0.000000 0.000000 
-101.269745 33.577923 -5.237104 0.000000 0.000000 0.000000 2.543234 0.865155 0.121088 -19.014079 16.595312 17.858885 23.619933 -8.024656 1.769942 -10.059264 -14.923482 -4.179207 -0.712624 -0.424312 1.681068 0.000000 0.000000 0.000000 1.350078 3.035252 -0.189754 -4.723567 -6.045878 -18.640114 21.175403 -0.217298 8.930378 -8.728601 -4.493208 6.900320 -8.320670 0.251690 -1.372861 0.000000 0.000000 0.000000 3.079026 1.624391 -0.221090 0.661501 1.140337 1.542880 2.644971 1.111750 0.409706 0.882114 -1.549175 0.223305 0.000000 0.000000 0.000000 1.630660 0.674427 0.577036 3.417276 -0.638720 -1.733885 -8.111446 -6.783314 1.715225 0.000000 0.000000 0.000000 0.697810 0.653165 0.225848 0.891281 0.874168 -9.143601 -2.137231 -1.225658 0.526970 7.912758 -17.085249 -62.089725 -1.173870 -31.130281 -0.013645 0.000000 0.000000 0.000000 1.487291 0.777140 0.895783 0.686569 5.055609 12.945526 1.756841 3.064835 -2.629815 13.602849 10.939664 59.850680 0.775879 39.803235 0.338573 0.000000 0.000000 0.000000 
-101.214020 33.591908 -5.232594 0.000000 0.000000 0.000000 2.417186 0.899476 0.077173 -19.308342 16.208286 17.682740 23.927891 -7.986855 2.081348 -9.152729 -15.097730 -3.846713 -0.846558 -0.470762 1.819156 0.000000 0.000000 0.000000 1.148115 2.989447 -0.222451 -4.665932 -5.964455 -18.312391 21.361220 -0.000589 8.489800 -9.280697 -4.438983 7.319034 -7.925883 0.309149 -1.463081 0.000000 0.000000 0.000000 3.058241 1.534787 -0.221366 0.481271 1.221007 1.697739 2.709704 1.256241 0.405137 1.000050 -1.408905 0.209670 0.000000 0.000000 0.000000 1.525811 0.786403 0.597585 3.597138 -0.698050 -1.821464 -8.574422 -7.030342 1.884764 0.000000 0.000000 0.000000 0.746568 0.794731 0.285453 0.830871 1.852910 -8.188695 -1.916056 -1.158021 0.650385 7.032799 -15.873843 -62.058990 -1.696499 -39.714777 -0.475860 0.000000 0.000000 0.000000 1.498227 0.920187 0.869115 0.752536 4.592355 12.076199 1.872751 3.066079 -2.226964 13.705867 11.504195 57.834381 0.695661 47.856940 0.185327 0.000000 0.000000 0.000000 
-101.164894 33.615078 -5.275206 0.000000 0.000000 0.000000 2.430476 1.057590 0.072862 -19.789879 15.696564 17.260807 24.238052 -7.891940 2.350987 -8.367434 -15.197547 -3.421390 -0.870795 -0.553463 2.116564 0.000000 0.000000 0.000000 1.103731 3.033218 -0.204513 -4.683224 -5.858966 -17.971848 21.371899 0.232204 7.914544 -9.797074 -4.430043 7.932231 -7.385151 0.406010 -1.493095 0.000000 0.000000 0.000000 3.183735 1.470034 -0.175994 0.240206 1.283097 1.815640 2.749193 1.416252 0.363856 1.158057 -1.399367 0.265083 0.000000 0.000000 0.000000 1.475261 0.916217 0.577710 3.880315 -0.732713 -1.837101 -9.026094 -7.080971 2.127487 0.000000 0.000000 0.000000 0.793338 0.945620 0.313702 0.718874 2.739108 -7.188517 -1.807842 -0.967631 0.747658 5.252974 -14.175138 -62.314213 -2.208161 -49.330454 -1.107006 0.000000 0.000000 0.000000 1.495380 1.072683 0.801802 0.803437 4.001821 10.982837 2.001692 2.993813 -1.808427 12.942352 11.352205 56.119655 0.613729 57.376519 -0.054261 0.000000 0.000000 0.000000 
-101.123512 33.616615 -5.365702 0.000000 0.000000 0.000000 2.684876 1.393089 0.114550 -20.784380 15.118019 16.707182 24.715294 -7.877446 2.503742 -7.760366 -15.253267 -3.096800 -0.993458 -0.667098 2.588478 0.000000 0.000000 0.000000 1.317206 3.242384 -0.146483 -5.044119 -5.703530 -17.709152 21.461569 0.532651 7.271400 -10.355065 -4.477188 8.713086 -6.812948 0.545392 -1.490755 0.000000 0.000000 0.000000 3.475022 1.452375 -0.075032 -0.010149 1.315247 1.859913 2.770070 1.579922 0.286195 1.286885 -1.553504 0.224869 0.000000 0.000000 0.000000 1.478066 1.043231 0.508223 4.139123 -0.742778 -1.790309 -9.529677 -6.897451 2.436102 0.000000 0.000000 0.000000 0.864667 1.084997 0.288935 0.599445 3.340961 -6.331951 -1.811404 -0.746267 0.828457 2.405029 -12.520351 -62.658229 -2.647215 -57.955255 -1.843010 0.000000 0.000000 0.000000 1.489881 1.211377 0.694188 0.820614 3.448515 9.790893 2.090465 3.018874 -1.502933 11.082730 10.630453 54.784435 0.462434 66.997981 -0.297003 0.000000 0.000000 0.000000 
-101.096779 33.547318 -5.535669 0.000000 0.000000 0.000000 3.190332 1.850873 0.212059 -22.641667 14.420802 16.161925 25.718854 -8.108621 2.511900 -7.091658 -15.224459 -3.087711 -1.326965 -0.784182 3.164443 0.000000 0.000000 0.000000 1.889288 3.643145 -0.070842 -6.122440 -5.535368 -17.584377 22.235905 0.956255 6.662759 -11.216783 -4.623776 9.406981 -6.108386 0.720399 -1.468238 0.000000 0.000000 0.000000 3.989043 1.499209 0.074403 -0.184313 1.316219 1.806187 2.802655 1.736929 0.177903 1.295725 -1.763270 0.253841 0.000000 0.000000 0.000000 1.552404 1.158276 0.402036 4.187589 -0.754098 -1.697711 -10.238036 -6.547080 2.772356 0.000000 0.000000 0.000000 0.976975 1.198449 0.211351 0.488462 3.532943 -5.722601 -1.894758 -0.652801 0.924141 -1.612319 -11.347284 -62.904389 -2.930331 -63.969783 -2.496880 0.000000 0.000000 0.000000 1.522407 1.329965 0.562457 0.807586 3.094653 8.738010 2.138722 3.176585 -1.360982 7.977050 9.626090 53.695396 0.170980 75.444945 -0.397227 0.000000 0.000000 0.000000 
-101.081421 33.358688 -5.755291 0.000000 0.000000 0.000000 4.004330 2.371326 0.352072 -25.482456 13.593920 15.690985 27.611400 -8.533807 2.337229 -6.404570 -14.983838 -3.196219 -1.755720 -0.872035 3.687547 0.000000 0.000000 0.000000 2.866365 4.175373 0.041806 -8.251059 -5.321283 -17.649974 24.240755 1.487364 6.167850 -12.668478 -4.880732 9.743048 -5.182852 0.913047 -1.437668 0.000000 0.000000 0.000000 4.768335 1.589790 0.278139 -0.219650 1.291255 1.645161 2.873525 1.889456 0.058274 1.171104 -2.016539 0.281547 0.000000 0.000000 0.000000 1.699779 1.260966 0.283026 3.900205 -0.768709 -1.582700 -11.289600 -6.120083 3.064242 0.000000 0.000000 0.000000 1.140446 1.292390 0.098214 0.413928 3.267182 -5.361204 -2.158914 -0.751808 0.959720 -6.775403 -10.838251 -62.833711 -2.949398 -67.019974 -2.854509 0.000000 0.000000 0.000000 1.604502 1.418082 0.429037 0.759769 3.078529 8.024344 2.166044 3.448532 -1.363371 3.694469 8.713780 52.600161 -0.653103 81.997930 0.082573 0.000000 0.000000 0.000000 
-101.084450 33.024574 -5.981422 0.000000 0.000000 0.000000 5.199869 2.778382 0.534790 -29.314195 12.687905 15.355607 30.657710 -8.955173 2.041685 -6.093348 -14.371102 -3.077722 -1.989259 -0.902952 3.969387 0.000000 0.000000 0.000000 4.217908 4.711549 0.190053 -11.712011 -4.948978 -17.934188 28.040768 2.121869 5.853915 -14.654536 -5.228109 9.681491 -4.591249 1.117797 -1.418038 0.000000 0.000000 0.000000 5.867876 1.739723 0.502849 -0.077795 1.258004 1.396306 3.000076 2.033133 -0.063790 0.941850 -2.109726 0.211694 0.000000 0.000000 0.000000 1.922216 1.353114 0.169343 3.236610 -0.836650 -1.478392 -12.787491 -5.718950 3.258199 0.000000 0.000000 0.000000 1.356710 1.378574 -0.021324 0.375892 2.475656 -5.186845 -2.503241 -1.073542 1.009932 -12.763326 -10.874251 -62.321959 -2.695302 -67.802564 -2.856516 0.000000 0.000000 0.000000 1.765102 1.496847 0.313949 0.684994 3.502676 7.778405 2.055660 3.681160 -1.372430 -1.633015 8.244466 51.298966 -3.338530 86.492393 2.565044 0.000000 0.000000 0.000000 
